<svg id="Layer_1" data-name="Layer 1" xmlns="http://www.w3.org/2000/svg" viewBox="0 0 147.15 47.39"><defs><style>.cls-1{fill:#c66e05;}.cls-2{fill:#ff8b00;}.cls-3,.cls-7,.cls-9{fill:#1480af;}.cls-4{font-size:12.57px;fill:#fff;}.cls-4,.cls-9{font-family:Lato-Black, Lato;font-weight:800;}.cls-5{letter-spacing:-0.07em;}.cls-6{letter-spacing:-0.03em;}.cls-7,.cls-8{fill-rule:evenodd;}.cls-9{font-size:9.07px;}.cls-10{letter-spacing:-0.05em;}</style></defs><title>Horizontal_logo1</title><polyline class="cls-1" points="28.41 43.96 55.95 43.96 28.41 0"/><polyline class="cls-1" points="27.55 43.96 0 43.96 27.55 0"/><polyline class="cls-2" points="28.41 43.96 47.1 47.39 28.41 0"/><polyline class="cls-2" points="27.55 43.96 8.99 47.39 27.55 0"/><path class="cls-3" d="M147.43,39.09c0,2.31-1.58,4.19-3,4.19H58a4,4,0,0,1-4-4.19V32.33a4,4,0,0,1,4-4.19h86.43c1.44,0,3,1.88,3,4.19Z" transform="translate(-1.42 -8.59)"/><path class="cls-2" d="M110.74,28.14h34.18c2.3,0,3.66,1.88,3.66,4.19v6.76c0,2.31-1.36,4.19-3.66,4.19H110.74" transform="translate(-1.42 -8.59)"/><text class="cls-4" transform="translate(56 31.43)">CAPI<tspan class="cls-5" x="29.09" y="0">T</tspan><tspan x="35.85" y="0">A</tspan><tspan class="cls-6" x="44.79" y="0">L</tspan><tspan x="51.01" y="0" xml:space="preserve"> LEAD</tspan></text><rect class="cls-2" x="117.32" y="23.8" width="7.8" height="2.24"/><rect class="cls-2" x="117.37" y="27.41" width="6.69" height="2.47"/><rect class="cls-2" x="122.29" y="25.43" width="2.58" height="2.47"/><rect class="cls-2" x="120.63" y="21.59" width="4.31" height="2.47"/><path class="cls-7" d="M123.34,31.65a2.28,2.28,0,0,1-1,.45.67.67,0,0,0-.49.47.8.8,0,0,0,0,.53c.08.17.16.33.25.49s.13.18.18.28a.2.2,0,0,0,.21.11c0,.17,0,.32-.25.38,0,0-.07.07-.1.1s.1.08.15.08.23,0,.35,0l.06,0c.12-.07.25-.14.36-.22a2.13,2.13,0,0,0,.26-.26s0-.07,0-.09-.13-.12-.12-.24-.08-.15-.14-.23l-.2-.24c-.11-.16-.06-.29.12-.36a1.68,1.68,0,0,1,.8-.08.35.35,0,0,1,.31.26,5.82,5.82,0,0,0,.92,2c.17.24.38.47.58.7s.1.14,0,.22a.77.77,0,0,1-.19.17s0,0-.08,0-.07.09,0,.13l.12,0,.3,0s.07,0,.11-.05a2.8,2.8,0,0,0,.34-.21,4.11,4.11,0,0,0,.3-.29l-.09-.08a.51.51,0,0,1-.19-.28.34.34,0,0,0-.13-.17,3.09,3.09,0,0,1-.75-1.08,5.11,5.11,0,0,1-.41-1.31c0-.23,0-.46-.05-.7v-.13A1.07,1.07,0,0,1,123.34,31.65Z" transform="translate(-1.42 -8.59)"/><path class="cls-7" d="M123.14,29.85l-.24.49a1.08,1.08,0,0,1-.08.19.11.11,0,0,1-.18,0,3,3,0,0,1-.42-.27c-.08-.05-.13-.05-.19,0l-.26.27c-.06.06-.06.1,0,.14l.92.58a.24.24,0,0,0,.29,0c.08-.05.15-.12.23-.18,0,.1.06.19.1.27a1.16,1.16,0,0,0,.89.63,1,1,0,0,0,.72-.26.13.13,0,0,0,0-.09l-.12-.8a.45.45,0,0,1,0-.08s.08,0,.1.07c.28.22.55.45.82.68a.15.15,0,0,0,.21,0l.3-.19c.07,0,.07-.07,0-.12-.24-.29-.49-.57-.74-.86s-.31-.37-.48-.55a1.32,1.32,0,0,0-.63-.43c-.16,0-.18,0-.25.1a7.45,7.45,0,0,0-.44,1.28c0,.12,0,.24,0,.37a1.59,1.59,0,0,1-.5-1.3Z" transform="translate(-1.42 -8.59)"/><path class="cls-8" d="M127.25,31.76a.78.78,0,0,1-.33-.05,3.2,3.2,0,0,1-.52-.18c-.07,0-.36.08-.37.15s0,.13,0,.2a.2.2,0,0,1,0,.13.52.52,0,0,0-.1.4.13.13,0,0,1,0,.1c-.19.24-.19.24,0,.49l.57.83c0,.06.08.06.14,0l1.56-.92c.11-.06.11-.07.05-.17-.19-.28-.39-.56-.57-.84A.31.31,0,0,0,127.25,31.76Z" transform="translate(-1.42 -8.59)"/><rect class="cls-2" x="126.05" y="31.86" width="0.71" height="0.22" transform="translate(2.9 69.16) rotate(-34.75)"/><path class="cls-7" d="M126.63,31.73c-.12-.08-.07-.15-.23-.24s-.36.07-.37.15a.63.63,0,0,0,0,.2c0-.15-.08.4.17.21" transform="translate(-1.42 -8.59)"/><path class="cls-7" d="M126.28,32a.12.12,0,0,1-.24,0,.12.12,0,0,1,.24,0Z" transform="translate(-1.42 -8.59)"/><path class="cls-7" d="M126.4,32a.12.12,0,0,1-.24,0,.12.12,0,0,1,.24,0Z" transform="translate(-1.42 -8.59)"/><path class="cls-7" d="M126.52,31.89a.12.12,0,1,1-.24,0,.12.12,0,1,1,.24,0Z" transform="translate(-1.42 -8.59)"/><path class="cls-7" d="M126.64,31.77a.12.12,0,0,1-.24,0,.12.12,0,0,1,.24,0Z" transform="translate(-1.42 -8.59)"/><path class="cls-7" d="M123.63,31a1.8,1.8,0,0,1-.06-.32c0-.24,0-.48,0-.72,0-.08,0-.17,0-.3l.42-.3a.18.18,0,0,0,.07-.08l.06-.22a1.65,1.65,0,0,0,.05-.38.39.39,0,0,0-.27-.35,1.25,1.25,0,0,0-.43-.07.31.31,0,0,0-.31.2.82.82,0,0,1-.2.35c-.11.09-.1.1,0,.18s.06,0,0,.1a.67.67,0,0,0-.09.14c-.06.11,0,.19.12.2a2.25,2.25,0,0,0,.26,0c.06,0,.1,0,.09.07a.18.18,0,0,0,.06.1s.06.06.1.11c-.14,0-.15.08-.16.17a1.48,1.48,0,0,0,.25,1.13Z" transform="translate(-1.42 -8.59)"/><path class="cls-7" d="M121.35,30.23c0,.14.09.18.18.21s.17,0,.24,0l.13-.13s0-.06,0-.09-.09-.17-.19-.22a.21.21,0,0,0-.26,0C121.43,30.07,121.35,30.14,121.35,30.23Z" transform="translate(-1.42 -8.59)"/><path class="cls-3" d="M125,31.89" transform="translate(-1.42 -8.59)"/><text class="cls-9" transform="translate(58.17 43.63)">BUSINESS BE<tspan class="cls-10" x="56.36" y="0">Y</tspan><tspan x="62.02" y="0">OND</tspan></text></svg>